<?xml version="1.0" standalone="no"?>
<!DOCTYPE svg PUBLIC "-//W3C//DTD SVG 20010904//EN"
 "http://www.w3.org/TR/2001/REC-SVG-20010904/DTD/svg10.dtd">
<svg version="1.0" xmlns="http://www.w3.org/2000/svg"
 width="1313.000000pt" height="1313.000000pt" viewBox="0 0 1313.000000 1313.000000"
 preserveAspectRatio="xMidYMid meet">
<metadata>
Created by potrace 1.11, written by Peter Selinger 2001-2013
</metadata>
<g transform="translate(0.000000,1313.000000) scale(0.100000,-0.100000)"
fill="#000000" stroke="none">
<path d="M6239 13126 c-2 -2 -57 -6 -121 -10 -65 -4 -135 -8 -155 -11 -21 -2
-63 -7 -93 -10 -30 -4 -71 -8 -90 -10 -19 -3 -53 -7 -75 -9 -94 -11 -266 -39
-384 -63 -69 -13 -137 -27 -151 -29 -34 -6 -184 -42 -245 -59 -255 -70 -418
-120 -610 -188 -84 -30 -386 -152 -412 -166 -10 -6 -40 -20 -68 -32 -156 -68
-444 -220 -650 -342 -94 -56 -414 -264 -425 -277 -3 -3 -57 -44 -120 -90 -195
-145 -405 -320 -584 -490 -104 -98 -336 -338 -401 -413 -6 -7 -40 -46 -76 -87
-564 -645 -1037 -1503 -1292 -2345 -42 -136 -121 -433 -132 -495 -3 -14 -7
-36 -10 -50 -29 -129 -74 -391 -90 -525 -4 -27 -8 -60 -10 -72 -2 -12 -7 -57
-10 -100 -4 -43 -9 -89 -11 -103 -26 -201 -26 -966 1 -1175 2 -16 7 -61 10
-100 3 -38 10 -97 15 -130 5 -33 11 -82 15 -110 8 -68 55 -347 59 -354 2 -3 7
-22 10 -41 3 -19 19 -93 36 -165 18 -71 35 -146 40 -165 18 -74 60 -221 103
-355 316 -982 867 -1886 1597 -2615 91 -91 188 -185 215 -210 160 -146 342
-296 500 -414 50 -37 97 -73 106 -80 32 -26 426 -285 475 -312 29 -16 83 -47
120 -68 119 -68 135 -77 294 -156 167 -84 308 -149 435 -200 44 -17 101 -41
128 -51 297 -121 745 -251 1117 -324 14 -3 63 -12 110 -20 47 -8 94 -17 105
-19 11 -2 45 -7 75 -11 30 -4 62 -9 70 -10 8 -2 42 -6 75 -9 33 -4 74 -9 90
-11 45 -6 166 -18 200 -20 213 -14 329 -18 540 -18 223 0 444 7 530 18 17 2
66 6 110 10 44 3 91 8 105 10 14 2 50 6 80 10 59 7 70 9 170 24 36 6 83 13
105 17 453 69 1071 254 1540 461 235 104 653 322 772 404 23 16 44 29 48 29 3
0 18 8 33 19 15 10 83 56 152 102 124 82 367 258 425 308 17 14 51 42 75 61
248 197 601 541 832 810 555 649 983 1402 1248 2200 42 126 88 274 95 305 2
11 17 70 33 130 27 101 47 183 58 245 3 14 9 41 14 60 5 19 12 51 15 70 3 19
10 58 15 85 5 28 12 66 15 85 3 19 10 60 15 90 5 30 12 82 15 115 4 33 8 67
10 75 2 8 7 47 10 85 4 39 8 77 10 85 28 113 28 1077 0 1295 -2 17 -7 57 -10
90 -7 65 -9 81 -25 200 -12 87 -14 95 -30 185 -5 33 -12 71 -14 85 -4 24 -31
155 -41 203 -3 12 -7 32 -10 45 -10 48 -77 313 -82 327 -3 8 -7 20 -8 26 -2 6
-22 72 -45 145 -221 709 -572 1395 -1008 1974 -86 114 -264 334 -326 403 -264
294 -549 567 -811 777 -60 48 -119 95 -130 104 -41 33 -273 199 -370 263 -295
195 -589 357 -955 525 -255 118 -768 296 -1026 358 -132 32 -378 86 -409 90
-22 4 -56 10 -75 15 -19 5 -55 11 -80 14 -25 3 -54 8 -66 10 -12 2 -45 7 -75
11 -30 3 -61 8 -69 10 -8 2 -44 7 -80 10 -36 4 -76 8 -90 10 -14 2 -61 6 -105
10 -44 4 -98 9 -120 11 -47 6 -791 15 -796 10z m1101 -3651 c96 -19 212 -74
271 -129 114 -104 197 -283 215 -463 6 -59 8 -62 21 -43 8 11 73 136 145 278
72 141 132 259 134 261 3 3 85 12 244 26 36 3 79 8 95 10 17 2 66 7 110 10 44
4 94 8 110 11 17 2 59 6 95 9 71 6 134 11 220 20 30 3 82 8 115 11 33 3 77 7
98 9 20 2 37 2 37 0 0 -3 -53 -100 -118 -217 -65 -117 -136 -244 -157 -283
-21 -38 -62 -113 -90 -165 -85 -154 -108 -196 -210 -385 -54 -99 -109 -200
-123 -225 -13 -25 -95 -178 -182 -340 -205 -384 -220 -412 -298 -560 -36 -69
-83 -156 -103 -195 -21 -38 -61 -115 -89 -170 -29 -55 -85 -163 -125 -240
-164 -316 -225 -438 -222 -442 7 -7 235 149 348 239 293 230 584 530 862 888
21 27 143 194 177 243 18 26 35 47 37 47 3 0 29 -20 59 -44 l54 -44 -119 -159
c-107 -145 -270 -346 -376 -463 -69 -78 -387 -393 -450 -447 -215 -183 -335
-275 -540 -410 -77 -50 -147 -98 -156 -105 -9 -7 -84 -146 -167 -308 -82 -162
-165 -324 -184 -360 -20 -36 -65 -122 -101 -192 -37 -70 -73 -138 -80 -150 -8
-13 -39 -70 -69 -128 -87 -165 -288 -523 -377 -672 -124 -207 -191 -310 -285
-438 -61 -83 -171 -224 -201 -256 -5 -6 -37 -43 -70 -83 -90 -107 -351 -359
-456 -441 -344 -267 -683 -417 -1010 -446 -174 -16 -328 -4 -436 32 -128 43
-248 120 -341 218 -142 150 -204 326 -197 558 2 59 6 111 9 116 3 5 8 27 12
48 5 37 35 135 53 179 145 348 446 683 928 1033 116 85 309 212 320 212 4 0
14 6 22 14 16 14 256 155 361 213 30 16 87 47 125 69 149 82 223 120 631 325
l421 211 68 151 c38 84 93 203 122 265 29 63 53 115 53 117 0 3 21 48 46 102
94 200 94 194 1 97 -232 -245 -438 -413 -617 -504 -25 -12 -56 -28 -70 -35
-33 -17 -200 -76 -200 -70 0 2 -15 -1 -32 -6 -92 -26 -287 -14 -397 25 -250
90 -425 331 -498 686 -26 128 -25 415 3 590 24 148 85 347 154 503 26 59 47
107 46 107 -1 0 -94 -115 -206 -255 -112 -140 -207 -255 -212 -255 -5 0 -31
15 -58 33 l-50 34 96 134 c163 226 496 655 544 699 3 3 41 46 85 95 167 189
404 426 548 547 28 24 55 48 61 53 6 6 43 35 81 66 383 307 780 500 1100 536
28 3 52 7 53 8 7 6 247 -3 282 -10z"/>
<path d="M7237 9286 c-201 -68 -426 -295 -697 -706 -45 -69 -91 -137 -101
-152 -11 -15 -19 -29 -19 -32 0 -2 -19 -35 -42 -72 -43 -72 -138 -235 -138
-239 0 -1 -30 -55 -66 -121 -67 -121 -309 -604 -353 -704 -13 -30 -42 -95 -64
-145 -97 -220 -205 -535 -233 -680 -2 -11 -8 -42 -14 -70 -14 -74 -21 -184
-14 -233 8 -55 44 -98 91 -109 79 -18 222 9 351 68 163 74 408 277 573 474 19
22 41 47 49 55 60 60 261 331 411 555 415 622 652 1136 704 1530 7 53 7 210 1
258 -16 111 -53 201 -108 256 -77 79 -213 107 -331 67z"/>
<path d="M6020 5452 c-460 -232 -828 -485 -1270 -873 -355 -312 -592 -577
-763 -854 -70 -115 -163 -330 -182 -423 -52 -250 -39 -407 43 -502 34 -41 134
-96 193 -108 19 -4 93 -7 164 -6 148 0 225 18 355 83 119 59 206 126 336 255
181 182 323 379 493 686 48 85 103 191 123 235 20 44 57 124 82 178 25 55 46
100 46 102 0 2 54 122 120 267 67 144 127 277 135 293 7 17 34 75 60 130 25
55 54 116 62 135 9 19 34 73 56 120 21 47 59 129 83 182 24 54 55 121 69 150
14 28 25 53 25 55 0 9 -35 -7 -230 -105z"/>
</g>
</svg>
